<?xml version="1.0" standalone="no"?>
<!DOCTYPE svg PUBLIC "-//W3C//DTD SVG 20010904//EN"
 "http://www.w3.org/TR/2001/REC-SVG-20010904/DTD/svg10.dtd">
<svg version="1.0" xmlns="http://www.w3.org/2000/svg"
 width="1000.000000pt" height="1000.000000pt" viewBox="0 0 1000.000000 1000.000000"
 preserveAspectRatio="xMidYMid meet">

<g transform="translate(0.000000,1000.000000) scale(0.100000,-0.100000)"
fill="#000000" stroke="none">
<path d="M4760 9756 c-3 -3 -66 -10 -140 -16 -874 -72 -1709 -381 -2412 -891
-296 -214 -653 -549 -871 -816 -848 -1038 -1223 -2341 -1052 -3653 116 -879
478 -1711 1052 -2413 218 -267 575 -602 871 -816 810 -587 1791 -906 2792
-906 1001 0 1982 319 2792 906 296 214 653 549 871 816 711 871 1092 1928
1092 3033 0 865 -235 1707 -684 2455 -201 335 -420 614 -711 905 -381 381
-757 653 -1231 891 -544 272 -1082 424 -1744 491 -116 11 -617 23 -625 14z
m2290 -3863 c0 -1145 -4 -1841 -10 -1898 -26 -228 -91 -458 -185 -651 -273
-557 -803 -920 -1490 -1020 -55 -8 -176 -17 -270 -20 -525 -19 -999 112 -1388
386 -114 80 -323 287 -404 400 -164 230 -272 489 -325 780 -15 86 -22 173 -25
348 l-5 232 729 0 730 0 6 -142 c6 -163 23 -240 75 -348 136 -278 494 -390
788 -245 133 65 243 211 291 385 16 61 18 180 20 1833 l3 1767 730 0 730 0 0
-1807z m-2686 530 c-19 -54 -115 -318 -212 -588 l-178 -490 -138 -3 c-129 -2
-138 -1 -131 15 4 10 99 272 211 582 113 311 207 568 210 573 3 4 66 8 139 8
l134 0 -35 -97z m-794 -236 l0 -134 -135 -69 c-74 -38 -135 -71 -135 -74 0 -3
61 -36 135 -73 l135 -67 0 -135 c0 -126 -1 -135 -17 -126 -10 6 -144 88 -298
183 l-280 173 0 44 0 43 290 183 c160 101 293 184 298 184 4 1 7 -59 7 -132z
m1242 -51 l293 -184 0 -43 0 -44 -280 -173 c-154 -95 -288 -177 -297 -183 -17
-9 -18 0 -18 126 l0 135 135 67 c74 37 135 70 135 73 0 3 -61 36 -135 74
l-135 69 0 134 c0 73 2 133 5 133 2 0 136 -83 297 -184z"/>
</g>
</svg>
